<mxfile host="app.diagrams.net" agent="Mozilla/5.0 (Windows NT 10.0; Win64; x64) AppleWebKit/537.36 (KHTML, like Gecko) Chrome/131.0.0.0 Safari/537.36 Edg/131.0.0.0" version="25.0.1">
  <diagram name="Sida-1" id="hBeX7880lNU1xmtIq2N0">
    <mxGraphModel dx="939" dy="487" grid="1" gridSize="10" guides="1" tooltips="1" connect="1" arrows="1" fold="1" page="1" pageScale="1" pageWidth="827" pageHeight="1169" math="0" shadow="0">
      <root>
        <mxCell id="0" />
        <mxCell id="1" parent="0" />
        <mxCell id="bJ-c9kGpw8AolBkWqE5i-2" value="Superklass" style="rounded=0;whiteSpace=wrap;html=1;fillColor=#d5e8d4;strokeColor=#82b366;" vertex="1" parent="1">
          <mxGeometry x="10" y="90" width="120" height="80" as="geometry" />
        </mxCell>
        <mxCell id="bJ-c9kGpw8AolBkWqE5i-13" style="edgeStyle=orthogonalEdgeStyle;rounded=0;orthogonalLoop=1;jettySize=auto;html=1;jumpStyle=arc;" edge="1" parent="1" source="bJ-c9kGpw8AolBkWqE5i-3" target="bJ-c9kGpw8AolBkWqE5i-6">
          <mxGeometry relative="1" as="geometry" />
        </mxCell>
        <mxCell id="bJ-c9kGpw8AolBkWqE5i-3" value="1" style="whiteSpace=wrap;html=1;aspect=fixed;" vertex="1" parent="1">
          <mxGeometry x="10" y="190" width="80" height="80" as="geometry" />
        </mxCell>
        <mxCell id="bJ-c9kGpw8AolBkWqE5i-14" style="edgeStyle=orthogonalEdgeStyle;rounded=0;orthogonalLoop=1;jettySize=auto;html=1;jumpStyle=arc;" edge="1" parent="1" source="bJ-c9kGpw8AolBkWqE5i-4" target="bJ-c9kGpw8AolBkWqE5i-5">
          <mxGeometry relative="1" as="geometry" />
        </mxCell>
        <mxCell id="bJ-c9kGpw8AolBkWqE5i-4" value="2" style="whiteSpace=wrap;html=1;aspect=fixed;" vertex="1" parent="1">
          <mxGeometry x="414" y="190" width="80" height="80" as="geometry" />
        </mxCell>
        <mxCell id="bJ-c9kGpw8AolBkWqE5i-5" value="2" style="whiteSpace=wrap;html=1;aspect=fixed;" vertex="1" parent="1">
          <mxGeometry x="240" y="190" width="80" height="80" as="geometry" />
        </mxCell>
        <mxCell id="bJ-c9kGpw8AolBkWqE5i-6" value="1" style="whiteSpace=wrap;html=1;aspect=fixed;" vertex="1" parent="1">
          <mxGeometry x="140" y="190" width="80" height="80" as="geometry" />
        </mxCell>
        <mxCell id="bJ-c9kGpw8AolBkWqE5i-16" style="edgeStyle=orthogonalEdgeStyle;rounded=0;orthogonalLoop=1;jettySize=auto;html=1;jumpStyle=arc;" edge="1" parent="1" source="bJ-c9kGpw8AolBkWqE5i-7" target="bJ-c9kGpw8AolBkWqE5i-8">
          <mxGeometry relative="1" as="geometry" />
        </mxCell>
        <mxCell id="bJ-c9kGpw8AolBkWqE5i-7" value="3" style="whiteSpace=wrap;html=1;aspect=fixed;direction=south;" vertex="1" parent="1">
          <mxGeometry x="640" y="190" width="80" height="80" as="geometry" />
        </mxCell>
        <mxCell id="bJ-c9kGpw8AolBkWqE5i-8" value="3" style="whiteSpace=wrap;html=1;aspect=fixed;" vertex="1" parent="1">
          <mxGeometry x="510" y="190" width="80" height="80" as="geometry" />
        </mxCell>
        <mxCell id="bJ-c9kGpw8AolBkWqE5i-9" value="&lt;h1 style=&quot;margin-top: 0px;&quot;&gt;&lt;font style=&quot;font-size: 16px;&quot;&gt;Mina diagram&lt;/font&gt;&lt;/h1&gt;&lt;p&gt;&lt;font style=&quot;font-size: 8px;&quot;&gt;Samlade diagram fÃ¶r utbildning till Cloudutvecklare&lt;/font&gt;&lt;/p&gt;" style="text;html=1;whiteSpace=wrap;overflow=hidden;rounded=0;" vertex="1" parent="1">
          <mxGeometry x="10" y="10" width="780" height="60" as="geometry" />
        </mxCell>
        <mxCell id="bJ-c9kGpw8AolBkWqE5i-19" value="" style="endArrow=none;html=1;rounded=0;" edge="1" parent="1">
          <mxGeometry width="50" height="50" relative="1" as="geometry">
            <mxPoint x="800" y="290" as="sourcePoint" />
            <mxPoint x="10" y="290" as="targetPoint" />
          </mxGeometry>
        </mxCell>
        <mxCell id="bJ-c9kGpw8AolBkWqE5i-21" value="" style="rounded=0;whiteSpace=wrap;html=1;fillColor=#d5e8d4;strokeColor=#82b366;" vertex="1" parent="1">
          <mxGeometry x="300" y="310" width="240" height="530" as="geometry" />
        </mxCell>
        <mxCell id="bJ-c9kGpw8AolBkWqE5i-22" value="Web&lt;br&gt;Customer" style="shape=umlActor;verticalLabelPosition=bottom;verticalAlign=top;html=1;outlineConnect=0;fontStyle=0" vertex="1" parent="1">
          <mxGeometry x="50" y="538" width="30" height="60" as="geometry" />
        </mxCell>
        <mxCell id="bJ-c9kGpw8AolBkWqE5i-39" style="rounded=0;orthogonalLoop=1;jettySize=auto;html=1;strokeColor=default;fontStyle=0;endArrow=block;endFill=0;endSize=12;targetPerimeterSpacing=10;sourcePerimeterSpacing=25;" edge="1" parent="1" source="bJ-c9kGpw8AolBkWqE5i-23" target="bJ-c9kGpw8AolBkWqE5i-22">
          <mxGeometry relative="1" as="geometry" />
        </mxCell>
        <mxCell id="bJ-c9kGpw8AolBkWqE5i-45" style="rounded=0;orthogonalLoop=1;jettySize=auto;html=1;endArrow=none;endFill=0;entryX=0;entryY=0.5;entryDx=0;entryDy=0;" edge="1" parent="1" source="bJ-c9kGpw8AolBkWqE5i-23" target="bJ-c9kGpw8AolBkWqE5i-41">
          <mxGeometry relative="1" as="geometry" />
        </mxCell>
        <mxCell id="bJ-c9kGpw8AolBkWqE5i-46" style="rounded=0;orthogonalLoop=1;jettySize=auto;html=1;endArrow=none;endFill=0;entryX=0;entryY=0.5;entryDx=0;entryDy=0;" edge="1" parent="1" source="bJ-c9kGpw8AolBkWqE5i-23" target="bJ-c9kGpw8AolBkWqE5i-28">
          <mxGeometry relative="1" as="geometry" />
        </mxCell>
        <mxCell id="bJ-c9kGpw8AolBkWqE5i-23" value="Registered&lt;br&gt;Customer" style="shape=umlActor;verticalLabelPosition=bottom;verticalAlign=top;html=1;outlineConnect=0;fontStyle=0" vertex="1" parent="1">
          <mxGeometry x="150" y="360" width="30" height="60" as="geometry" />
        </mxCell>
        <mxCell id="bJ-c9kGpw8AolBkWqE5i-40" style="rounded=0;orthogonalLoop=1;jettySize=auto;html=1;fontStyle=0;endArrow=block;endFill=0;endSize=12;targetPerimeterSpacing=35;" edge="1" parent="1" source="bJ-c9kGpw8AolBkWqE5i-25" target="bJ-c9kGpw8AolBkWqE5i-22">
          <mxGeometry relative="1" as="geometry" />
        </mxCell>
        <mxCell id="bJ-c9kGpw8AolBkWqE5i-48" style="rounded=0;orthogonalLoop=1;jettySize=auto;html=1;endArrow=none;endFill=0;" edge="1" parent="1" source="bJ-c9kGpw8AolBkWqE5i-25" target="bJ-c9kGpw8AolBkWqE5i-42">
          <mxGeometry relative="1" as="geometry" />
        </mxCell>
        <mxCell id="bJ-c9kGpw8AolBkWqE5i-25" value="New&lt;br&gt;Customer" style="shape=umlActor;verticalLabelPosition=bottom;verticalAlign=top;html=1;outlineConnect=0;fontStyle=0" vertex="1" parent="1">
          <mxGeometry x="150" y="750" width="30" height="60" as="geometry" />
        </mxCell>
        <mxCell id="bJ-c9kGpw8AolBkWqE5i-43" style="edgeStyle=orthogonalEdgeStyle;rounded=0;orthogonalLoop=1;jettySize=auto;html=1;dashed=1;" edge="1" parent="1" source="bJ-c9kGpw8AolBkWqE5i-28" target="bJ-c9kGpw8AolBkWqE5i-41">
          <mxGeometry relative="1" as="geometry" />
        </mxCell>
        <mxCell id="bJ-c9kGpw8AolBkWqE5i-44" style="edgeStyle=orthogonalEdgeStyle;rounded=0;orthogonalLoop=1;jettySize=auto;html=1;dashed=1;" edge="1" parent="1" source="bJ-c9kGpw8AolBkWqE5i-28" target="bJ-c9kGpw8AolBkWqE5i-29">
          <mxGeometry relative="1" as="geometry" />
        </mxCell>
        <mxCell id="bJ-c9kGpw8AolBkWqE5i-28" value="MAKE PURCHASE" style="ellipse;whiteSpace=wrap;html=1;fontStyle=1;fillColor=#dae8fc;strokeColor=#6c8ebf;" vertex="1" parent="1">
          <mxGeometry x="330" y="480" width="180" height="80" as="geometry" />
        </mxCell>
        <mxCell id="bJ-c9kGpw8AolBkWqE5i-51" style="rounded=0;orthogonalLoop=1;jettySize=auto;html=1;endArrow=none;endFill=0;exitX=1;exitY=0.5;exitDx=0;exitDy=0;curved=0;" edge="1" parent="1" source="bJ-c9kGpw8AolBkWqE5i-29" target="bJ-c9kGpw8AolBkWqE5i-31">
          <mxGeometry relative="1" as="geometry">
            <Array as="points">
              <mxPoint x="600" y="420" />
            </Array>
          </mxGeometry>
        </mxCell>
        <mxCell id="bJ-c9kGpw8AolBkWqE5i-52" style="rounded=0;orthogonalLoop=1;jettySize=auto;html=1;endArrow=none;endFill=0;exitX=1;exitY=0.5;exitDx=0;exitDy=0;" edge="1" parent="1" source="bJ-c9kGpw8AolBkWqE5i-29" target="bJ-c9kGpw8AolBkWqE5i-32">
          <mxGeometry relative="1" as="geometry" />
        </mxCell>
        <mxCell id="bJ-c9kGpw8AolBkWqE5i-53" style="rounded=0;orthogonalLoop=1;jettySize=auto;html=1;endArrow=none;endFill=0;" edge="1" parent="1" source="bJ-c9kGpw8AolBkWqE5i-29" target="bJ-c9kGpw8AolBkWqE5i-33">
          <mxGeometry relative="1" as="geometry" />
        </mxCell>
        <mxCell id="bJ-c9kGpw8AolBkWqE5i-54" style="rounded=0;orthogonalLoop=1;jettySize=auto;html=1;endArrow=none;endFill=0;exitX=1;exitY=0.5;exitDx=0;exitDy=0;" edge="1" parent="1" source="bJ-c9kGpw8AolBkWqE5i-29" target="bJ-c9kGpw8AolBkWqE5i-34">
          <mxGeometry relative="1" as="geometry" />
        </mxCell>
        <mxCell id="bJ-c9kGpw8AolBkWqE5i-29" value="CHECKOUT" style="ellipse;whiteSpace=wrap;html=1;fontStyle=1;fillColor=#dae8fc;strokeColor=#6c8ebf;" vertex="1" parent="1">
          <mxGeometry x="330" y="610" width="180" height="80" as="geometry" />
        </mxCell>
        <mxCell id="bJ-c9kGpw8AolBkWqE5i-31" value="Service&lt;br&gt;Provider" style="shape=umlActor;verticalLabelPosition=bottom;verticalAlign=top;html=1;outlineConnect=0;fontStyle=1" vertex="1" parent="1">
          <mxGeometry x="750" y="360" width="30" height="60" as="geometry" />
        </mxCell>
        <mxCell id="bJ-c9kGpw8AolBkWqE5i-32" value="Identity&lt;br&gt;Provider" style="shape=umlActor;verticalLabelPosition=bottom;verticalAlign=top;html=1;outlineConnect=0;fontStyle=1" vertex="1" parent="1">
          <mxGeometry x="750" y="490" width="30" height="60" as="geometry" />
        </mxCell>
        <mxCell id="bJ-c9kGpw8AolBkWqE5i-33" value="Credit&lt;br&gt;Payment&lt;br&gt;Service" style="shape=umlActor;verticalLabelPosition=bottom;verticalAlign=top;html=1;outlineConnect=0;fontStyle=1" vertex="1" parent="1">
          <mxGeometry x="750" y="620" width="30" height="60" as="geometry" />
        </mxCell>
        <mxCell id="bJ-c9kGpw8AolBkWqE5i-34" value="PayPal" style="shape=umlActor;verticalLabelPosition=bottom;verticalAlign=top;html=1;outlineConnect=0;fontStyle=1" vertex="1" parent="1">
          <mxGeometry x="750" y="750" width="30" height="60" as="geometry" />
        </mxCell>
        <mxCell id="bJ-c9kGpw8AolBkWqE5i-47" style="rounded=0;orthogonalLoop=1;jettySize=auto;html=1;endArrow=none;endFill=0;exitX=0;exitY=0.5;exitDx=0;exitDy=0;" edge="1" parent="1" source="bJ-c9kGpw8AolBkWqE5i-41" target="bJ-c9kGpw8AolBkWqE5i-25">
          <mxGeometry relative="1" as="geometry" />
        </mxCell>
        <mxCell id="bJ-c9kGpw8AolBkWqE5i-49" style="rounded=0;orthogonalLoop=1;jettySize=auto;html=1;endArrow=none;endFill=0;" edge="1" parent="1" source="bJ-c9kGpw8AolBkWqE5i-41" target="bJ-c9kGpw8AolBkWqE5i-31">
          <mxGeometry relative="1" as="geometry" />
        </mxCell>
        <mxCell id="bJ-c9kGpw8AolBkWqE5i-50" style="rounded=0;orthogonalLoop=1;jettySize=auto;html=1;endArrow=none;endFill=0;" edge="1" parent="1" source="bJ-c9kGpw8AolBkWqE5i-41" target="bJ-c9kGpw8AolBkWqE5i-32">
          <mxGeometry relative="1" as="geometry" />
        </mxCell>
        <mxCell id="bJ-c9kGpw8AolBkWqE5i-41" value="VIEW ITEMS" style="ellipse;whiteSpace=wrap;html=1;fontStyle=1;fillColor=#dae8fc;strokeColor=#6c8ebf;" vertex="1" parent="1">
          <mxGeometry x="330" y="350" width="180" height="80" as="geometry" />
        </mxCell>
        <mxCell id="bJ-c9kGpw8AolBkWqE5i-55" style="rounded=0;orthogonalLoop=1;jettySize=auto;html=1;endArrow=none;endFill=0;exitX=1;exitY=0.5;exitDx=0;exitDy=0;" edge="1" parent="1" source="bJ-c9kGpw8AolBkWqE5i-42" target="bJ-c9kGpw8AolBkWqE5i-31">
          <mxGeometry relative="1" as="geometry">
            <Array as="points">
              <mxPoint x="640" y="440" />
            </Array>
          </mxGeometry>
        </mxCell>
        <mxCell id="bJ-c9kGpw8AolBkWqE5i-42" value="CLIENT REGISTER" style="ellipse;whiteSpace=wrap;html=1;fontStyle=1;fillColor=#dae8fc;strokeColor=#6c8ebf;" vertex="1" parent="1">
          <mxGeometry x="330" y="740" width="180" height="80" as="geometry" />
        </mxCell>
        <mxCell id="bJ-c9kGpw8AolBkWqE5i-56" value="&lt;h5 style=&quot;margin-top: 0px;&quot;&gt;&lt;span style=&quot;background-color: initial;&quot;&gt;&lt;font style=&quot;font-size: 9px;&quot;&gt;&amp;lt;&amp;lt;Subsystem&amp;gt;&amp;gt;&lt;br&gt;&lt;/font&gt;&lt;/span&gt;&lt;span style=&quot;font-size: 8px; font-family: Verdana; font-weight: 400; background-color: initial;&quot;&gt;Online shopping&lt;/span&gt;&lt;span style=&quot;background-color: initial;&quot;&gt;&lt;font style=&quot;font-size: 9px;&quot;&gt;&lt;/font&gt;&lt;/span&gt;&lt;/h5&gt;" style="text;html=1;whiteSpace=wrap;overflow=hidden;rounded=0;" vertex="1" parent="1">
          <mxGeometry x="310" y="310" width="80" height="40" as="geometry" />
        </mxCell>
        <mxCell id="bJ-c9kGpw8AolBkWqE5i-57" value="&lt;h5 style=&quot;margin-top: 0px;&quot;&gt;&lt;span style=&quot;background-color: initial; font-weight: normal;&quot;&gt;&lt;font style=&quot;font-size: 9px;&quot;&gt;&amp;lt;&amp;lt;include&amp;gt;&amp;gt;&lt;br&gt;&lt;/font&gt;&lt;/span&gt;&lt;br&gt;&lt;/h5&gt;" style="text;html=1;whiteSpace=wrap;overflow=hidden;rounded=0;" vertex="1" parent="1">
          <mxGeometry x="440" y="440" width="80" height="30" as="geometry" />
        </mxCell>
        <mxCell id="bJ-c9kGpw8AolBkWqE5i-58" value="&lt;h5 style=&quot;margin-top: 0px;&quot;&gt;&lt;span style=&quot;background-color: initial; font-weight: normal;&quot;&gt;&lt;font style=&quot;font-size: 9px;&quot;&gt;&amp;lt;&amp;lt;include&amp;gt;&amp;gt;&lt;br&gt;&lt;/font&gt;&lt;/span&gt;&lt;br&gt;&lt;/h5&gt;" style="text;html=1;whiteSpace=wrap;overflow=hidden;rounded=0;" vertex="1" parent="1">
          <mxGeometry x="440" y="568" width="80" height="30" as="geometry" />
        </mxCell>
        <mxCell id="bJ-c9kGpw8AolBkWqE5i-65" value="" style="endArrow=none;html=1;rounded=0;" edge="1" parent="1">
          <mxGeometry width="50" height="50" relative="1" as="geometry">
            <mxPoint x="800" y="880" as="sourcePoint" />
            <mxPoint x="10" y="880" as="targetPoint" />
          </mxGeometry>
        </mxCell>
        <mxCell id="bJ-c9kGpw8AolBkWqE5i-66" value="" style="endArrow=none;html=1;rounded=0;" edge="1" parent="1">
          <mxGeometry width="50" height="50" relative="1" as="geometry">
            <mxPoint x="800" y="870" as="sourcePoint" />
            <mxPoint x="800" y="300" as="targetPoint" />
          </mxGeometry>
        </mxCell>
        <mxCell id="bJ-c9kGpw8AolBkWqE5i-67" value="" style="endArrow=none;html=1;rounded=0;" edge="1" parent="1">
          <mxGeometry width="50" height="50" relative="1" as="geometry">
            <mxPoint x="800" y="280" as="sourcePoint" />
            <mxPoint x="800" y="15" as="targetPoint" />
          </mxGeometry>
        </mxCell>
        <mxCell id="bJ-c9kGpw8AolBkWqE5i-68" value="BankOffice" style="swimlane;fontStyle=1;align=center;verticalAlign=top;childLayout=stackLayout;horizontal=1;startSize=26;horizontalStack=0;resizeParent=1;resizeParentMax=0;resizeLast=0;collapsible=1;marginBottom=0;whiteSpace=wrap;html=1;" vertex="1" parent="1">
          <mxGeometry x="1100" y="40" width="260" height="172" as="geometry" />
        </mxCell>
        <mxCell id="bJ-c9kGpw8AolBkWqE5i-69" value="+ location: String" style="text;strokeColor=none;fillColor=none;align=left;verticalAlign=top;spacingLeft=4;spacingRight=4;overflow=hidden;rotatable=0;points=[[0,0.5],[1,0.5]];portConstraint=eastwest;whiteSpace=wrap;html=1;" vertex="1" parent="bJ-c9kGpw8AolBkWqE5i-68">
          <mxGeometry y="26" width="260" height="26" as="geometry" />
        </mxCell>
        <mxCell id="bJ-c9kGpw8AolBkWqE5i-122" value="+ currentCredit: String" style="text;strokeColor=none;fillColor=none;align=left;verticalAlign=top;spacingLeft=4;spacingRight=4;overflow=hidden;rotatable=0;points=[[0,0.5],[1,0.5]];portConstraint=eastwest;whiteSpace=wrap;html=1;" vertex="1" parent="bJ-c9kGpw8AolBkWqE5i-68">
          <mxGeometry y="52" width="260" height="26" as="geometry" />
        </mxCell>
        <mxCell id="bJ-c9kGpw8AolBkWqE5i-72" value="+ creditLimit: int" style="text;strokeColor=none;fillColor=none;align=left;verticalAlign=top;spacingLeft=4;spacingRight=4;overflow=hidden;rotatable=0;points=[[0,0.5],[1,0.5]];portConstraint=eastwest;whiteSpace=wrap;html=1;" vertex="1" parent="bJ-c9kGpw8AolBkWqE5i-68">
          <mxGeometry y="78" width="260" height="26" as="geometry" />
        </mxCell>
        <mxCell id="bJ-c9kGpw8AolBkWqE5i-70" value="" style="line;strokeWidth=1;fillColor=none;align=left;verticalAlign=middle;spacingTop=-1;spacingLeft=3;spacingRight=3;rotatable=0;labelPosition=right;points=[];portConstraint=eastwest;strokeColor=inherit;" vertex="1" parent="bJ-c9kGpw8AolBkWqE5i-68">
          <mxGeometry y="104" width="260" height="8" as="geometry" />
        </mxCell>
        <mxCell id="bJ-c9kGpw8AolBkWqE5i-119" value="+ increaseCredit(int): bool" style="text;strokeColor=none;fillColor=none;align=left;verticalAlign=top;spacingLeft=4;spacingRight=4;overflow=hidden;rotatable=0;points=[[0,0.5],[1,0.5]];portConstraint=eastwest;whiteSpace=wrap;html=1;" vertex="1" parent="bJ-c9kGpw8AolBkWqE5i-68">
          <mxGeometry y="112" width="260" height="30" as="geometry" />
        </mxCell>
        <mxCell id="bJ-c9kGpw8AolBkWqE5i-121" value="+ createCustomer(): bool" style="text;strokeColor=none;fillColor=none;align=left;verticalAlign=top;spacingLeft=4;spacingRight=4;overflow=hidden;rotatable=0;points=[[0,0.5],[1,0.5]];portConstraint=eastwest;whiteSpace=wrap;html=1;" vertex="1" parent="bJ-c9kGpw8AolBkWqE5i-68">
          <mxGeometry y="142" width="260" height="30" as="geometry" />
        </mxCell>
        <mxCell id="bJ-c9kGpw8AolBkWqE5i-75" value="Customer" style="swimlane;fontStyle=1;align=center;verticalAlign=top;childLayout=stackLayout;horizontal=1;startSize=26;horizontalStack=0;resizeParent=1;resizeParentMax=0;resizeLast=0;collapsible=1;marginBottom=0;whiteSpace=wrap;html=1;" vertex="1" parent="1">
          <mxGeometry x="1100" y="260" width="260" height="146" as="geometry" />
        </mxCell>
        <mxCell id="bJ-c9kGpw8AolBkWqE5i-76" value="+ fullName: String" style="text;strokeColor=none;fillColor=none;align=left;verticalAlign=top;spacingLeft=4;spacingRight=4;overflow=hidden;rotatable=0;points=[[0,0.5],[1,0.5]];portConstraint=eastwest;whiteSpace=wrap;html=1;" vertex="1" parent="bJ-c9kGpw8AolBkWqE5i-75">
          <mxGeometry y="26" width="260" height="26" as="geometry" />
        </mxCell>
        <mxCell id="bJ-c9kGpw8AolBkWqE5i-77" value="+ birthDate: Date" style="text;strokeColor=none;fillColor=none;align=left;verticalAlign=top;spacingLeft=4;spacingRight=4;overflow=hidden;rotatable=0;points=[[0,0.5],[1,0.5]];portConstraint=eastwest;whiteSpace=wrap;html=1;" vertex="1" parent="bJ-c9kGpw8AolBkWqE5i-75">
          <mxGeometry y="52" width="260" height="26" as="geometry" />
        </mxCell>
        <mxCell id="bJ-c9kGpw8AolBkWqE5i-79" value="" style="line;strokeWidth=1;fillColor=none;align=left;verticalAlign=middle;spacingTop=-1;spacingLeft=3;spacingRight=3;rotatable=0;labelPosition=right;points=[];portConstraint=eastwest;strokeColor=inherit;" vertex="1" parent="bJ-c9kGpw8AolBkWqE5i-75">
          <mxGeometry y="78" width="260" height="8" as="geometry" />
        </mxCell>
        <mxCell id="bJ-c9kGpw8AolBkWqE5i-71" value="+ openAccount(AccountType): bool" style="text;strokeColor=none;fillColor=none;align=left;verticalAlign=top;spacingLeft=4;spacingRight=4;overflow=hidden;rotatable=0;points=[[0,0.5],[1,0.5]];portConstraint=eastwest;whiteSpace=wrap;html=1;" vertex="1" parent="bJ-c9kGpw8AolBkWqE5i-75">
          <mxGeometry y="86" width="260" height="34" as="geometry" />
        </mxCell>
        <mxCell id="bJ-c9kGpw8AolBkWqE5i-80" value="+ createLoan(): bool" style="text;strokeColor=none;fillColor=none;align=left;verticalAlign=top;spacingLeft=4;spacingRight=4;overflow=hidden;rotatable=0;points=[[0,0.5],[1,0.5]];portConstraint=eastwest;whiteSpace=wrap;html=1;" vertex="1" parent="bJ-c9kGpw8AolBkWqE5i-75">
          <mxGeometry y="120" width="260" height="26" as="geometry" />
        </mxCell>
        <mxCell id="bJ-c9kGpw8AolBkWqE5i-81" value="ATM" style="swimlane;fontStyle=1;align=center;verticalAlign=top;childLayout=stackLayout;horizontal=1;startSize=26;horizontalStack=0;resizeParent=1;resizeParentMax=0;resizeLast=0;collapsible=1;marginBottom=0;whiteSpace=wrap;html=1;" vertex="1" parent="1">
          <mxGeometry x="1420" y="57" width="180" height="138" as="geometry" />
        </mxCell>
        <mxCell id="bJ-c9kGpw8AolBkWqE5i-82" value="+ location: String" style="text;strokeColor=none;fillColor=none;align=left;verticalAlign=top;spacingLeft=4;spacingRight=4;overflow=hidden;rotatable=0;points=[[0,0.5],[1,0.5]];portConstraint=eastwest;whiteSpace=wrap;html=1;" vertex="1" parent="bJ-c9kGpw8AolBkWqE5i-81">
          <mxGeometry y="26" width="180" height="26" as="geometry" />
        </mxCell>
        <mxCell id="bJ-c9kGpw8AolBkWqE5i-83" value="+ currentCash: int" style="text;strokeColor=none;fillColor=none;align=left;verticalAlign=top;spacingLeft=4;spacingRight=4;overflow=hidden;rotatable=0;points=[[0,0.5],[1,0.5]];portConstraint=eastwest;whiteSpace=wrap;html=1;" vertex="1" parent="bJ-c9kGpw8AolBkWqE5i-81">
          <mxGeometry y="52" width="180" height="26" as="geometry" />
        </mxCell>
        <mxCell id="bJ-c9kGpw8AolBkWqE5i-84" value="+ maxCash: int" style="text;strokeColor=none;fillColor=none;align=left;verticalAlign=top;spacingLeft=4;spacingRight=4;overflow=hidden;rotatable=0;points=[[0,0.5],[1,0.5]];portConstraint=eastwest;whiteSpace=wrap;html=1;" vertex="1" parent="bJ-c9kGpw8AolBkWqE5i-81">
          <mxGeometry y="78" width="180" height="26" as="geometry" />
        </mxCell>
        <mxCell id="bJ-c9kGpw8AolBkWqE5i-85" value="" style="line;strokeWidth=1;fillColor=none;align=left;verticalAlign=middle;spacingTop=-1;spacingLeft=3;spacingRight=3;rotatable=0;labelPosition=right;points=[];portConstraint=eastwest;strokeColor=inherit;" vertex="1" parent="bJ-c9kGpw8AolBkWqE5i-81">
          <mxGeometry y="104" width="180" height="8" as="geometry" />
        </mxCell>
        <mxCell id="bJ-c9kGpw8AolBkWqE5i-86" value="+ addCash(int): bool" style="text;strokeColor=none;fillColor=none;align=left;verticalAlign=top;spacingLeft=4;spacingRight=4;overflow=hidden;rotatable=0;points=[[0,0.5],[1,0.5]];portConstraint=eastwest;whiteSpace=wrap;html=1;" vertex="1" parent="bJ-c9kGpw8AolBkWqE5i-81">
          <mxGeometry y="112" width="180" height="26" as="geometry" />
        </mxCell>
        <mxCell id="bJ-c9kGpw8AolBkWqE5i-87" value="Account" style="swimlane;fontStyle=1;align=center;verticalAlign=top;childLayout=stackLayout;horizontal=1;startSize=26;horizontalStack=0;resizeParent=1;resizeParentMax=0;resizeLast=0;collapsible=1;marginBottom=0;whiteSpace=wrap;html=1;" vertex="1" parent="1">
          <mxGeometry x="1100" y="464" width="260" height="112" as="geometry" />
        </mxCell>
        <mxCell id="bJ-c9kGpw8AolBkWqE5i-88" value="+ accountNumber: String" style="text;strokeColor=none;fillColor=none;align=left;verticalAlign=top;spacingLeft=4;spacingRight=4;overflow=hidden;rotatable=0;points=[[0,0.5],[1,0.5]];portConstraint=eastwest;whiteSpace=wrap;html=1;" vertex="1" parent="bJ-c9kGpw8AolBkWqE5i-87">
          <mxGeometry y="26" width="260" height="26" as="geometry" />
        </mxCell>
        <mxCell id="bJ-c9kGpw8AolBkWqE5i-89" value="+ balance: int" style="text;strokeColor=none;fillColor=none;align=left;verticalAlign=top;spacingLeft=4;spacingRight=4;overflow=hidden;rotatable=0;points=[[0,0.5],[1,0.5]];portConstraint=eastwest;whiteSpace=wrap;html=1;" vertex="1" parent="bJ-c9kGpw8AolBkWqE5i-87">
          <mxGeometry y="52" width="260" height="26" as="geometry" />
        </mxCell>
        <mxCell id="bJ-c9kGpw8AolBkWqE5i-90" value="" style="line;strokeWidth=1;fillColor=none;align=left;verticalAlign=middle;spacingTop=-1;spacingLeft=3;spacingRight=3;rotatable=0;labelPosition=right;points=[];portConstraint=eastwest;strokeColor=inherit;" vertex="1" parent="bJ-c9kGpw8AolBkWqE5i-87">
          <mxGeometry y="78" width="260" height="8" as="geometry" />
        </mxCell>
        <mxCell id="bJ-c9kGpw8AolBkWqE5i-91" value="+ method(type): type" style="text;strokeColor=none;fillColor=none;align=left;verticalAlign=top;spacingLeft=4;spacingRight=4;overflow=hidden;rotatable=0;points=[[0,0.5],[1,0.5]];portConstraint=eastwest;whiteSpace=wrap;html=1;" vertex="1" parent="bJ-c9kGpw8AolBkWqE5i-87">
          <mxGeometry y="86" width="260" height="26" as="geometry" />
        </mxCell>
        <mxCell id="bJ-c9kGpw8AolBkWqE5i-97" value="Riksbanken" style="swimlane;fontStyle=1;align=center;verticalAlign=top;childLayout=stackLayout;horizontal=1;startSize=26;horizontalStack=0;resizeParent=1;resizeParentMax=0;resizeLast=0;collapsible=1;marginBottom=0;whiteSpace=wrap;html=1;" vertex="1" parent="1">
          <mxGeometry x="850" y="96" width="180" height="60" as="geometry" />
        </mxCell>
        <mxCell id="bJ-c9kGpw8AolBkWqE5i-100" value="" style="line;strokeWidth=1;fillColor=none;align=left;verticalAlign=middle;spacingTop=-1;spacingLeft=3;spacingRight=3;rotatable=0;labelPosition=right;points=[];portConstraint=eastwest;strokeColor=inherit;" vertex="1" parent="bJ-c9kGpw8AolBkWqE5i-97">
          <mxGeometry y="26" width="180" height="8" as="geometry" />
        </mxCell>
        <mxCell id="bJ-c9kGpw8AolBkWqE5i-101" value="+ requestCredit(int): bool" style="text;strokeColor=none;fillColor=none;align=left;verticalAlign=top;spacingLeft=4;spacingRight=4;overflow=hidden;rotatable=0;points=[[0,0.5],[1,0.5]];portConstraint=eastwest;whiteSpace=wrap;html=1;" vertex="1" parent="bJ-c9kGpw8AolBkWqE5i-97">
          <mxGeometry y="34" width="180" height="26" as="geometry" />
        </mxCell>
        <mxCell id="bJ-c9kGpw8AolBkWqE5i-104" value="Loan" style="swimlane;fontStyle=1;align=center;verticalAlign=top;childLayout=stackLayout;horizontal=1;startSize=26;horizontalStack=0;resizeParent=1;resizeParentMax=0;resizeLast=0;collapsible=1;marginBottom=0;whiteSpace=wrap;html=1;" vertex="1" parent="1">
          <mxGeometry x="1420" y="264" width="180" height="138" as="geometry" />
        </mxCell>
        <mxCell id="bJ-c9kGpw8AolBkWqE5i-105" value="+ principal: int" style="text;strokeColor=none;fillColor=none;align=left;verticalAlign=top;spacingLeft=4;spacingRight=4;overflow=hidden;rotatable=0;points=[[0,0.5],[1,0.5]];portConstraint=eastwest;whiteSpace=wrap;html=1;" vertex="1" parent="bJ-c9kGpw8AolBkWqE5i-104">
          <mxGeometry y="26" width="180" height="26" as="geometry" />
        </mxCell>
        <mxCell id="bJ-c9kGpw8AolBkWqE5i-106" value="+ interest: int" style="text;strokeColor=none;fillColor=none;align=left;verticalAlign=top;spacingLeft=4;spacingRight=4;overflow=hidden;rotatable=0;points=[[0,0.5],[1,0.5]];portConstraint=eastwest;whiteSpace=wrap;html=1;" vertex="1" parent="bJ-c9kGpw8AolBkWqE5i-104">
          <mxGeometry y="52" width="180" height="26" as="geometry" />
        </mxCell>
        <mxCell id="bJ-c9kGpw8AolBkWqE5i-109" value="+ paidBack: int" style="text;strokeColor=none;fillColor=none;align=left;verticalAlign=top;spacingLeft=4;spacingRight=4;overflow=hidden;rotatable=0;points=[[0,0.5],[1,0.5]];portConstraint=eastwest;whiteSpace=wrap;html=1;" vertex="1" parent="bJ-c9kGpw8AolBkWqE5i-104">
          <mxGeometry y="78" width="180" height="26" as="geometry" />
        </mxCell>
        <mxCell id="bJ-c9kGpw8AolBkWqE5i-107" value="" style="line;strokeWidth=1;fillColor=none;align=left;verticalAlign=middle;spacingTop=-1;spacingLeft=3;spacingRight=3;rotatable=0;labelPosition=right;points=[];portConstraint=eastwest;strokeColor=inherit;" vertex="1" parent="bJ-c9kGpw8AolBkWqE5i-104">
          <mxGeometry y="104" width="180" height="8" as="geometry" />
        </mxCell>
        <mxCell id="bJ-c9kGpw8AolBkWqE5i-108" value="+ payBack(int): bool" style="text;strokeColor=none;fillColor=none;align=left;verticalAlign=top;spacingLeft=4;spacingRight=4;overflow=hidden;rotatable=0;points=[[0,0.5],[1,0.5]];portConstraint=eastwest;whiteSpace=wrap;html=1;" vertex="1" parent="bJ-c9kGpw8AolBkWqE5i-104">
          <mxGeometry y="112" width="180" height="26" as="geometry" />
        </mxCell>
        <mxCell id="bJ-c9kGpw8AolBkWqE5i-113" value="Use" style="endArrow=open;endSize=12;dashed=1;html=1;rounded=0;" edge="1" parent="1" source="bJ-c9kGpw8AolBkWqE5i-68" target="bJ-c9kGpw8AolBkWqE5i-97">
          <mxGeometry width="160" relative="1" as="geometry">
            <mxPoint x="1160" y="60" as="sourcePoint" />
            <mxPoint x="1000" y="60" as="targetPoint" />
          </mxGeometry>
        </mxCell>
        <mxCell id="bJ-c9kGpw8AolBkWqE5i-115" value="" style="endArrow=diamondThin;endFill=0;endSize=24;html=1;rounded=0;" edge="1" parent="1" source="bJ-c9kGpw8AolBkWqE5i-81" target="bJ-c9kGpw8AolBkWqE5i-68">
          <mxGeometry width="160" relative="1" as="geometry">
            <mxPoint x="1460" y="110" as="sourcePoint" />
            <mxPoint x="1300" y="110" as="targetPoint" />
          </mxGeometry>
        </mxCell>
        <mxCell id="bJ-c9kGpw8AolBkWqE5i-117" value="" style="endArrow=diamondThin;endFill=0;endSize=24;html=1;rounded=0;" edge="1" parent="1" source="bJ-c9kGpw8AolBkWqE5i-87" target="bJ-c9kGpw8AolBkWqE5i-75">
          <mxGeometry width="160" relative="1" as="geometry">
            <mxPoint x="1140" y="410" as="sourcePoint" />
            <mxPoint x="980" y="410" as="targetPoint" />
          </mxGeometry>
        </mxCell>
        <mxCell id="bJ-c9kGpw8AolBkWqE5i-118" value="" style="endArrow=diamondThin;endFill=0;endSize=24;html=1;rounded=0;" edge="1" parent="1" source="bJ-c9kGpw8AolBkWqE5i-104" target="bJ-c9kGpw8AolBkWqE5i-75">
          <mxGeometry width="160" relative="1" as="geometry">
            <mxPoint x="1410" y="330" as="sourcePoint" />
            <mxPoint x="1250" y="330" as="targetPoint" />
          </mxGeometry>
        </mxCell>
        <mxCell id="bJ-c9kGpw8AolBkWqE5i-114" value="" style="endArrow=diamondThin;endFill=0;endSize=24;html=1;rounded=0;" edge="1" parent="1" source="bJ-c9kGpw8AolBkWqE5i-75" target="bJ-c9kGpw8AolBkWqE5i-68">
          <mxGeometry width="160" relative="1" as="geometry">
            <mxPoint x="1190" y="260" as="sourcePoint" />
            <mxPoint x="1350" y="260" as="targetPoint" />
          </mxGeometry>
        </mxCell>
        <mxCell id="bJ-c9kGpw8AolBkWqE5i-123" value="" style="endArrow=none;html=1;rounded=0;" edge="1" parent="1">
          <mxGeometry width="50" height="50" relative="1" as="geometry">
            <mxPoint x="1630" y="600" as="sourcePoint" />
            <mxPoint x="840" y="600" as="targetPoint" />
          </mxGeometry>
        </mxCell>
        <mxCell id="bJ-c9kGpw8AolBkWqE5i-129" style="edgeStyle=orthogonalEdgeStyle;rounded=0;orthogonalLoop=1;jettySize=auto;html=1;dashed=1;endArrow=none;endFill=0;" edge="1" parent="1" source="bJ-c9kGpw8AolBkWqE5i-124">
          <mxGeometry relative="1" as="geometry">
            <mxPoint x="930" y="1040" as="targetPoint" />
          </mxGeometry>
        </mxCell>
        <mxCell id="bJ-c9kGpw8AolBkWqE5i-124" value="Admin" style="rounded=0;whiteSpace=wrap;html=1;" vertex="1" parent="1">
          <mxGeometry x="870" y="620" width="120" height="80" as="geometry" />
        </mxCell>
        <mxCell id="bJ-c9kGpw8AolBkWqE5i-130" style="edgeStyle=orthogonalEdgeStyle;rounded=0;orthogonalLoop=1;jettySize=auto;html=1;dashed=1;endArrow=none;endFill=0;" edge="1" parent="1" source="bJ-c9kGpw8AolBkWqE5i-125">
          <mxGeometry relative="1" as="geometry">
            <mxPoint x="1100" y="1040" as="targetPoint" />
          </mxGeometry>
        </mxCell>
        <mxCell id="bJ-c9kGpw8AolBkWqE5i-125" value="Examiner" style="rounded=0;whiteSpace=wrap;html=1;" vertex="1" parent="1">
          <mxGeometry x="1040" y="620" width="120" height="80" as="geometry" />
        </mxCell>
        <mxCell id="bJ-c9kGpw8AolBkWqE5i-131" style="edgeStyle=orthogonalEdgeStyle;rounded=0;orthogonalLoop=1;jettySize=auto;html=1;dashed=1;endArrow=none;endFill=0;" edge="1" parent="1" source="bJ-c9kGpw8AolBkWqE5i-126">
          <mxGeometry relative="1" as="geometry">
            <mxPoint x="1270" y="1040" as="targetPoint" />
          </mxGeometry>
        </mxCell>
        <mxCell id="bJ-c9kGpw8AolBkWqE5i-126" value="Admin" style="rounded=0;whiteSpace=wrap;html=1;" vertex="1" parent="1">
          <mxGeometry x="1210" y="620" width="120" height="80" as="geometry" />
        </mxCell>
        <mxCell id="bJ-c9kGpw8AolBkWqE5i-132" style="edgeStyle=orthogonalEdgeStyle;rounded=0;orthogonalLoop=1;jettySize=auto;html=1;dashed=1;endArrow=none;endFill=0;exitX=0.5;exitY=1;exitDx=0;exitDy=0;" edge="1" parent="1" source="bJ-c9kGpw8AolBkWqE5i-127">
          <mxGeometry relative="1" as="geometry">
            <mxPoint x="1440" y="1040" as="targetPoint" />
          </mxGeometry>
        </mxCell>
        <mxCell id="bJ-c9kGpw8AolBkWqE5i-127" value="Student" style="rounded=0;whiteSpace=wrap;html=1;" vertex="1" parent="1">
          <mxGeometry x="1380" y="620" width="120" height="80" as="geometry" />
        </mxCell>
        <mxCell id="bJ-c9kGpw8AolBkWqE5i-134" value="" style="endArrow=classic;html=1;rounded=0;" edge="1" parent="1">
          <mxGeometry width="50" height="50" relative="1" as="geometry">
            <mxPoint x="1100" y="740" as="sourcePoint" />
            <mxPoint x="1270" y="740" as="targetPoint" />
          </mxGeometry>
        </mxCell>
        <mxCell id="bJ-c9kGpw8AolBkWqE5i-136" value="Send prepared exam" style="edgeLabel;html=1;align=center;verticalAlign=middle;resizable=0;points=[];" vertex="1" connectable="0" parent="bJ-c9kGpw8AolBkWqE5i-134">
          <mxGeometry x="-0.2667" relative="1" as="geometry">
            <mxPoint as="offset" />
          </mxGeometry>
        </mxCell>
        <mxCell id="bJ-c9kGpw8AolBkWqE5i-137" value="" style="endArrow=classic;html=1;rounded=0;" edge="1" parent="1">
          <mxGeometry width="50" height="50" relative="1" as="geometry">
            <mxPoint x="1270" y="760" as="sourcePoint" />
            <mxPoint x="1440" y="760" as="targetPoint" />
          </mxGeometry>
        </mxCell>
        <mxCell id="bJ-c9kGpw8AolBkWqE5i-138" value="Send prepared exam" style="edgeLabel;html=1;align=center;verticalAlign=middle;resizable=0;points=[];" vertex="1" connectable="0" parent="bJ-c9kGpw8AolBkWqE5i-137">
          <mxGeometry x="-0.2667" relative="1" as="geometry">
            <mxPoint as="offset" />
          </mxGeometry>
        </mxCell>
        <mxCell id="bJ-c9kGpw8AolBkWqE5i-139" value="" style="endArrow=classic;html=1;rounded=0;" edge="1" parent="1">
          <mxGeometry width="50" height="50" relative="1" as="geometry">
            <mxPoint x="1270" y="809.33" as="sourcePoint" />
            <mxPoint x="1100" y="809.33" as="targetPoint" />
          </mxGeometry>
        </mxCell>
        <mxCell id="bJ-c9kGpw8AolBkWqE5i-140" value="Send completed exam" style="edgeLabel;html=1;align=center;verticalAlign=middle;resizable=0;points=[];" vertex="1" connectable="0" parent="bJ-c9kGpw8AolBkWqE5i-139">
          <mxGeometry x="-0.2667" relative="1" as="geometry">
            <mxPoint x="-18" as="offset" />
          </mxGeometry>
        </mxCell>
        <mxCell id="bJ-c9kGpw8AolBkWqE5i-141" value="" style="endArrow=classic;html=1;rounded=0;" edge="1" parent="1">
          <mxGeometry width="50" height="50" relative="1" as="geometry">
            <mxPoint x="1440" y="790" as="sourcePoint" />
            <mxPoint x="1270" y="790" as="targetPoint" />
          </mxGeometry>
        </mxCell>
        <mxCell id="bJ-c9kGpw8AolBkWqE5i-142" value="Send completed exam" style="edgeLabel;html=1;align=center;verticalAlign=middle;resizable=0;points=[];" vertex="1" connectable="0" parent="bJ-c9kGpw8AolBkWqE5i-141">
          <mxGeometry x="-0.2667" relative="1" as="geometry">
            <mxPoint x="-18" as="offset" />
          </mxGeometry>
        </mxCell>
        <mxCell id="bJ-c9kGpw8AolBkWqE5i-145" value="" style="endArrow=classic;html=1;rounded=0;" edge="1" parent="1">
          <mxGeometry width="50" height="50" relative="1" as="geometry">
            <mxPoint x="1100" y="820" as="sourcePoint" />
            <mxPoint x="1100" y="850" as="targetPoint" />
            <Array as="points">
              <mxPoint x="1070" y="820" />
              <mxPoint x="1040" y="820" />
              <mxPoint x="1040" y="840" />
              <mxPoint x="1040" y="850" />
              <mxPoint x="1070" y="850" />
            </Array>
          </mxGeometry>
        </mxCell>
        <mxCell id="bJ-c9kGpw8AolBkWqE5i-146" value="Grade exam" style="edgeLabel;html=1;align=center;verticalAlign=middle;resizable=0;points=[];" vertex="1" connectable="0" parent="bJ-c9kGpw8AolBkWqE5i-145">
          <mxGeometry x="-0.0238" relative="1" as="geometry">
            <mxPoint as="offset" />
          </mxGeometry>
        </mxCell>
        <mxCell id="bJ-c9kGpw8AolBkWqE5i-147" value="" style="endArrow=classic;html=1;rounded=0;" edge="1" parent="1">
          <mxGeometry width="50" height="50" relative="1" as="geometry">
            <mxPoint x="1100" y="870" as="sourcePoint" />
            <mxPoint x="1270" y="870" as="targetPoint" />
          </mxGeometry>
        </mxCell>
        <mxCell id="bJ-c9kGpw8AolBkWqE5i-148" value="Send graded exam" style="edgeLabel;html=1;align=center;verticalAlign=middle;resizable=0;points=[];" vertex="1" connectable="0" parent="bJ-c9kGpw8AolBkWqE5i-147">
          <mxGeometry x="-0.2667" relative="1" as="geometry">
            <mxPoint x="8" as="offset" />
          </mxGeometry>
        </mxCell>
      </root>
    </mxGraphModel>
  </diagram>
</mxfile>
